<svg width="134" height="31" viewBox="0 0 134 31" fill="none" xmlns="http://www.w3.org/2000/svg">
<path d="M89 7.5H75C71.9624 7.5 69.5 9.96243 69.5 13C69.5 16.0376 71.9624 18.5 75 18.5H89C92.0376 18.5 94.5 16.0376 94.5 13C94.5 9.96243 92.0376 7.5 89 7.5Z" fill="#262626" stroke="#D0CFCF"/>
<path d="M84 7H69V19H84V7Z" fill="#262626"/>
<path d="M84.5 19V24" stroke="#D0CFCF"/>
<path d="M89.3904 18.6877L93.3904 23.6877" stroke="#D0CFCF"/>
<path d="M100.45 7V24" stroke="#D0CFCF" stroke-width="0.9"/>
<path d="M16.4062 14.2727C16.4062 16.0739 16.0938 17.6477 15.4688 18.9943C14.8438 20.3352 13.9744 21.3778 12.8608 22.1222C11.7528 22.8665 10.4744 23.2386 9.02557 23.2386C7.57102 23.2386 6.28693 22.8665 5.1733 22.1222C4.06534 21.3722 3.19886 20.3267 2.57386 18.9858C1.94886 17.6392 1.63636 16.0682 1.63636 14.2727C1.63636 12.4716 1.94886 10.9006 2.57386 9.55966C3.20455 8.21875 4.07386 7.17614 5.18182 6.43182C6.28977 5.68182 7.57102 5.30682 9.02557 5.30682C10.4744 5.30682 11.7528 5.67898 12.8608 6.42329C13.9744 7.16761 14.8438 8.21307 15.4688 9.55966C16.0938 10.9006 16.4062 12.4716 16.4062 14.2727ZM15.3665 14.2727C15.3665 12.6534 15.0938 11.25 14.5483 10.0625C14.0085 8.875 13.2614 7.95739 12.3068 7.30966C11.3523 6.65625 10.2585 6.32954 9.02557 6.32954C7.79261 6.32954 6.69886 6.65341 5.74432 7.30114C4.78977 7.94318 4.03977 8.8608 3.49432 10.054C2.95455 11.2415 2.68466 12.6477 2.68466 14.2727C2.68466 15.8807 2.9517 17.2812 3.4858 18.4744C4.02557 19.6619 4.77273 20.5824 5.72727 21.2358C6.68182 21.8892 7.78125 22.2159 9.02557 22.2159C10.2585 22.2159 11.3523 21.892 12.3068 21.2443C13.2614 20.5909 14.0085 19.6705 14.5483 18.483C15.0938 17.2955 15.3665 15.892 15.3665 14.2727Z" fill="#D0CFCF"/>
<path d="M50.3636 7.53409V6.54545H62.5938V7.53409H57.0114V24H55.946V7.53409H50.3636ZM66.4759 24V6.54545H67.5412V14.7699H78.0582V6.54545H79.1236V24H78.0582V15.7585H67.5412V24H66.4759Z" fill="#D0CFCF"/>
<path d="M120.364 8.53409V7.54545H132.594V8.53409H127.011V25H125.946V8.53409H120.364Z" fill="#D0CFCF"/>
<path d="M105 8C110.393 8 116.58 8 119 8" stroke="#D0CFCF"/>
<path d="M118.5 16H106V24" stroke="#D0CFCF"/>
<path d="M35 7C40.3926 7 46.5802 7 49 7" stroke="#D0CFCF"/>
<path d="M48.5 15H36V23" stroke="#D0CFCF"/>
<path d="M19 7C24.3926 7 30.5802 7 33 7" stroke="#D0CFCF"/>
<path d="M32.5 15H20V23" stroke="#D0CFCF"/>
</svg>
